<svg width="1778" height="1776" viewBox="0 0 1778 1776" fill="none" xmlns="http://www.w3.org/2000/svg">
<path d="M912.344 338.541L1330.86 577.94C1344.87 585.955 1353.52 600.86 1353.52 617.001V1095C1353.52 1111.14 1344.87 1126.05 1330.86 1134.06L912.344 1373.46C898.5 1381.38 881.5 1381.38 867.656 1373.46L449.137 1134.06C435.126 1126.05 426.48 1111.14 426.48 1095V617.001C426.48 600.86 435.126 585.955 449.137 577.94L867.656 338.541C881.5 330.622 898.5 330.622 912.344 338.541Z" stroke="#E4E5E7" stroke-width="10"/>
<path d="M912.344 338.541L1330.86 577.94C1344.87 585.955 1353.52 600.86 1353.52 617.001V1095C1353.52 1111.14 1344.87 1126.05 1330.86 1134.06L912.344 1373.46C898.5 1381.38 881.5 1381.38 867.656 1373.46L449.137 1134.06C435.126 1126.05 426.48 1111.14 426.48 1095V617.001C426.48 600.86 435.126 585.955 449.137 577.94L867.656 338.541C881.5 330.622 898.5 330.622 912.344 338.541Z" stroke="#EBDEDE" stroke-width="10"/>
<path fill-rule="evenodd" clip-rule="evenodd" d="M913.406 408.217C898.018 399.41 879.117 399.41 863.729 408.217L510.161 610.598C494.6 619.505 485 636.062 485 653.992V1058.01C485 1075.94 494.6 1092.5 510.161 1101.4L863.729 1303.78C879.117 1312.59 898.018 1312.59 913.406 1303.78L1266.98 1101.4C1282.54 1092.5 1292.14 1075.94 1292.14 1058.01V653.992C1292.14 636.062 1282.54 619.505 1266.98 610.598L913.406 408.217ZM898.511 464.698C892.352 461.169 884.783 461.169 878.624 464.698L552.214 651.738C545.994 655.302 542.157 661.922 542.157 669.09V1042.91C542.157 1050.08 545.994 1056.7 552.214 1060.26L878.624 1247.3C884.783 1250.83 892.352 1250.83 898.511 1247.3L1224.93 1060.26C1231.14 1056.7 1234.98 1050.08 1234.98 1042.91V669.09C1234.98 661.922 1231.14 655.302 1224.93 651.738L898.511 464.698Z" fill="#B5B4FF"/>
<path d="M912.355 412.557L1265.92 614.937C1279.93 622.953 1288.57 637.855 1288.57 653.992V1058.01C1288.57 1074.15 1279.93 1089.05 1265.92 1097.06L912.355 1299.44C898.506 1307.37 881.494 1307.37 867.645 1299.44L514.077 1097.06C500.073 1089.05 491.432 1074.15 491.432 1058.01V653.992C491.432 637.855 500.073 622.953 514.077 614.937L867.645 412.557C881.494 404.63 898.506 404.63 912.355 412.557Z" stroke="#7875FF" stroke-width="10"/>
<path d="M891 821L939 872H840L891 821Z" fill="#B5B4FF"/>
<path d="M976 912H799L754 962.5H1026.5L976 912Z" fill="#B5B4FF"/>
<path d="M849.5 870.5L840 872M840 872H939L891 821L840 872ZM799 912H976L1026.5 962.5H754L799 912Z" stroke="#7875FF" stroke-width="10"/>
<path d="M889 583L588 1063L904 702.5L1189 1058L889 583Z" fill="#B5B4FF" stroke="#7875FF" stroke-width="10"/>
<path d="M502.852 631.252L676.252 734.148" stroke="#7875FF" stroke-width="10" stroke-linecap="round"/>
<path d="M542.026 651.655L537.681 654.129L542.629 662.819L546.974 660.345L542.026 651.655ZM719.974 561.845C722.374 560.479 723.211 557.426 721.845 555.026C720.479 552.626 717.426 551.789 715.026 553.155L719.974 561.845ZM546.974 660.345L719.974 561.845L715.026 553.155L542.026 651.655L546.974 660.345Z" fill="#7875FF"/>
<path d="M548 656.976L547.976 651.976L537.976 652.024L538 657.024L548 656.976ZM539 868.024C539.013 870.785 541.262 873.013 544.024 873C546.785 872.987 549.013 870.738 549 867.976L539 868.024ZM538 657.024L539 868.024L549 867.976L548 656.976L538 657.024Z" fill="#7875FF"/>
<path d="M1282.22 637.308L1106.41 736.028" stroke="#7875FF" stroke-width="10" stroke-linecap="round"/>
<path d="M1236.47 664.968L1241.47 665.031L1239.03 857.532L1234.03 857.469L1236.47 664.968ZM1236.43 862.499L1236.51 862.5C1236.5 862.5 1236.49 862.5 1236.47 862.5C1236.46 862.5 1236.44 862.5 1236.43 862.499ZM1236.53 659.969L1237.5 659.981L1236.53 659.969L1236.53 659.969Z" stroke="#7875FF" stroke-width="5"/>
<path d="M1235.98 664.821L1240.3 667.337L1245.34 658.696L1241.02 656.179L1235.98 664.821ZM1059.02 550.179C1056.63 548.79 1053.57 549.597 1052.18 551.984C1050.79 554.37 1051.6 557.431 1053.98 558.821L1059.02 550.179ZM1241.02 656.179L1059.02 550.179L1053.98 558.821L1235.98 664.821L1241.02 656.179Z" fill="#7875FF"/>
<path d="M884.759 1303.03L887.171 1101.41" stroke="#7875FF" stroke-width="10" stroke-linecap="round"/>
<path d="M882.269 1259.45L886.584 1261.98L891.633 1253.35L887.317 1250.82L882.269 1259.45ZM715.525 1150.34C713.142 1148.94 710.079 1149.75 708.685 1152.13C707.291 1154.51 708.093 1157.58 710.476 1158.97L715.525 1150.34ZM887.317 1250.82L715.525 1150.34L710.476 1158.97L882.269 1259.45L887.317 1250.82Z" fill="#7875FF"/>
<path d="M884.551 1256.17L880.221 1258.67L885.221 1267.33L889.551 1264.83L884.551 1256.17ZM1072.72 1159.08C1075.11 1157.7 1075.93 1154.64 1074.55 1152.25C1073.16 1149.86 1070.11 1149.04 1067.72 1150.42L1072.72 1159.08ZM889.551 1264.83L1072.72 1159.08L1067.72 1150.42L884.551 1256.17L889.551 1264.83Z" fill="#7875FF"/>
</svg>
